<?xml version="1.0" standalone="no"?>
<!DOCTYPE svg PUBLIC "-//W3C//DTD SVG 20010904//EN"
 "http://www.w3.org/TR/2001/REC-SVG-20010904/DTD/svg10.dtd">
<svg version="1.0" xmlns="http://www.w3.org/2000/svg"
 width="1024.000000pt" height="768.000000pt" viewBox="0 0 1024.000000 768.000000"
 preserveAspectRatio="xMidYMid meet">
<metadata>
Created by potrace 1.15, written by Peter Selinger 2001-2017
</metadata>
<g transform="translate(0.000000,768.000000) scale(0.100000,-0.100000)"
fill="#000000" stroke="none">
<path d="M0 3840 l0 -3840 5120 0 5120 0 0 3840 0 3840 -5120 0 -5120 0 0
-3840z m5457 3088 l9 -43 18 30 c16 29 56 55 82 55 7 0 11 -23 11 -67 -1 -102
5 -114 56 -107 112 14 195 -109 137 -204 l-20 -33 29 -37 c37 -46 74 -129 67
-148 -7 -18 -35 -18 -60 1 -17 13 -22 12 -48 -10 -19 -16 -42 -25 -64 -25 -19
0 -34 -4 -34 -10 0 -16 -101 -91 -132 -97 -16 -3 -34 -15 -40 -26 -10 -19 -8
-20 50 -15 33 3 87 18 122 34 45 20 66 25 78 18 26 -17 35 -39 28 -70 -9 -37
-116 -141 -183 -179 -45 -25 -53 -35 -64 -75 -15 -51 -91 -135 -133 -146 -25
-6 -26 -10 -26 -69 l0 -63 48 -7 c68 -9 145 -56 222 -134 124 -126 176 -290
139 -437 -16 -64 -95 -148 -160 -171 -27 -10 -49 -21 -49 -25 0 -12 -150 -9
-361 7 -107 8 -209 17 -228 19 l-34 5 7 -107 c12 -183 28 -264 69 -351 36 -77
137 -160 215 -176 35 -7 67 9 55 29 -3 6 -3 8 2 4 4 -4 24 4 44 17 19 14 39
25 43 25 5 0 51 18 104 41 89 38 101 41 173 37 214 -9 381 -208 381 -453 0
-74 -3 -89 -35 -151 -47 -94 -114 -176 -186 -229 -65 -48 -79 -53 -79 -32 0
26 -37 50 -67 43 -124 -27 -331 -57 -390 -57 -108 0 -100 -16 32 -61 72 -24
76 -27 45 -29 -72 -5 -164 18 -166 41 -2 36 -5 41 -16 35 -7 -4 -2 2 12 13
l25 20 -29 8 c-16 4 -41 3 -55 -3 -21 -7 -25 -15 -23 -37 4 -33 0 -32 -122 20
-155 66 -292 168 -410 305 -48 56 -93 117 -184 255 -7 10 -3 0 8 -23 23 -49
25 -57 8 -47 -7 4 -8 3 -4 -5 4 -6 11 -9 16 -6 4 3 7 -3 6 -12 0 -10 5 -18 12
-18 14 0 52 -44 52 -60 0 -5 -10 5 -21 23 -12 18 -24 31 -26 28 -17 -17 204
-269 307 -350 19 -16 30 -25 23 -22 -6 3 -19 -1 -27 -10 -9 -8 -16 -12 -17 -7
0 4 -4 -2 -9 -14 -5 -13 -16 -23 -25 -23 -14 0 -20 -12 -16 -33 2 -11 -53 20
-104 58 -159 118 -294 280 -385 464 -47 94 -117 332 -125 426 -3 39 -12 138
-20 220 -8 83 -17 186 -20 230 -4 44 -17 197 -30 340 -13 143 -27 296 -30 340
-3 44 -11 118 -17 165 -19 148 5 256 73 334 50 56 200 176 259 207 36 18 61
23 125 23 70 1 89 -3 147 -31 73 -34 153 -103 199 -170 40 -58 84 -178 88
-238 3 -61 18 -186 23 -190 4 -4 327 -45 354 -45 17 0 19 6 16 56 -4 48 -7 56
-29 65 -19 7 -30 6 -42 -5 -27 -23 -78 -46 -104 -46 -13 0 -32 9 -43 21 -19
21 -18 22 13 80 l32 59 -19 42 c-11 24 -20 48 -20 54 0 6 -49 89 -110 184 -60
96 -110 183 -110 195 0 34 24 48 68 40 29 -4 42 -2 51 9 10 12 18 13 32 5 26
-13 42 -49 69 -149 12 -47 29 -102 37 -122 l15 -37 49 39 c27 21 73 52 102 69
l54 30 -57 58 c-42 44 -60 72 -74 117 -56 177 59 363 244 392 l39 6 -1 59 c-1
91 43 126 59 47z m321 -3494 c29 -12 33 -17 22 -24 -12 -7 -11 -9 5 -8 28 2
185 -76 220 -110 94 -90 206 -215 223 -249 51 -98 59 -241 20 -353 -29 -84
-121 -182 -189 -201 -69 -19 -137 -16 -217 10 -62 20 -79 31 -114 72 -39 47
-83 69 -158 82 -14 3 -1 3 28 1 52 -4 138 -39 175 -72 9 -8 17 -10 17 -4 0 6
-6 12 -12 15 -7 2 -9 8 -5 13 4 4 21 0 36 -9 16 -9 33 -17 38 -17 4 0 0 5 -10
11 -9 6 -14 15 -11 21 4 6 3 8 -3 5 -6 -4 -16 0 -23 8 -18 22 3 18 33 -5 14
-11 30 -20 37 -20 6 0 8 -5 4 -12 -5 -7 -3 -8 6 -3 7 4 16 2 21 -6 6 -10 9
-10 9 -2 0 7 -13 19 -30 28 -41 21 -38 27 5 9 47 -19 99 -18 144 5 45 23 98
81 118 128 16 40 21 123 9 176 -9 40 7 54 19 16 4 -11 9 -18 11 -16 8 8 -21
71 -39 85 -13 11 -15 10 -11 -10 4 -18 -3 -13 -33 22 -42 50 -145 161 -182
197 -13 13 -31 23 -39 23 -8 0 -12 3 -9 6 18 18 -162 87 -268 103 l-60 9 77
-1 c42 0 75 -4 72 -9 -3 -4 6 -8 21 -8 14 0 42 -7 62 -15 19 -8 37 -15 38 -15
6 0 -2 30 -10 37 -4 4 -5 2 -1 -4 9 -17 -11 -16 -49 2 l-30 13 45 2 45 2 -35
15 c-19 9 -42 17 -50 18 -8 1 -24 6 -35 13 -18 10 -18 11 -2 12 32 0 17 18
-21 25 -21 3 -43 5 -48 4 -17 -3 -25 1 -20 10 7 11 108 -5 154 -25z m-653 -70
c-138 -73 -270 -189 -341 -299 -60 -93 -132 -243 -149 -310 -21 -82 -45 -272
-45 -353 0 -38 9 -178 20 -312 24 -312 28 -423 12 -404 -11 12 -32 85 -33 115
0 15 -3 19 -6 9 -3 -8 -11 -18 -18 -22 -7 -4 -10 -18 -8 -30 4 -19 -2 -25 -34
-35 -45 -14 -50 -11 -34 23 16 35 4 49 -19 22 l-18 -23 -11 27 c-5 15 -22 155
-36 312 -26 281 -26 287 -10 423 22 185 36 238 100 368 149 304 384 486 665
514 8 0 -8 -11 -35 -25z m558 -60 c24 -8 30 -12 12 -9 -16 3 -70 8 -120 11
-214 13 -441 -79 -597 -242 -77 -81 -99 -114 -172 -263 -83 -169 -99 -334 -66
-696 11 -128 21 -323 15 -310 -9 21 -56 524 -56 601 0 45 7 127 15 182 69 457
421 770 839 745 48 -3 106 -11 130 -19z m10 -554 c35 -11 71 -28 78 -38 12
-15 12 -16 -1 -6 -70 50 -236 64 -320 27 -68 -30 -126 -92 -173 -185 l-42 -83
1 -160 c0 -95 7 -206 17 -273 21 -138 22 -208 4 -215 -10 -4 -14 5 -15 29 -1
19 -13 115 -27 214 -14 98 -25 207 -25 242 0 63 20 166 42 223 17 43 80 135
120 173 75 71 212 92 341 52z m3738 -2416 c15 -14 21 -14 34 -4 13 11 13 8 0
-30 -8 -23 -15 -54 -15 -69 0 -19 -8 -29 -30 -39 -40 -18 -63 -12 -74 19 -7
20 -4 36 10 65 23 46 44 56 44 21 0 -16 -7 -26 -20 -30 -28 -7 -27 -53 2 -63
32 -10 49 19 43 74 -4 50 -15 65 -40 60 -55 -10 -81 -126 -39 -169 20 -19 25
-20 58 -9 20 6 36 17 36 23 0 7 5 4 11 -5 17 -30 25 -20 25 35 0 28 8 68 17
87 15 35 16 34 11 -48 -4 -69 -2 -83 11 -89 9 -3 21 -1 27 5 6 6 21 7 41 1 49
-14 75 -11 97 11 31 31 26 65 -11 80 -19 8 -28 18 -25 27 4 8 6 22 6 31 0 9 8
2 18 -17 23 -46 46 -60 72 -43 22 13 63 16 74 5 4 -5 60 -7 125 -5 98 3 120 0
131 -13 15 -18 18 -71 4 -85 -5 -5 -8 8 -6 35 4 49 -15 68 -44 44 -13 -10 -17
-10 -24 1 -7 11 -11 11 -23 1 -12 -9 -17 -9 -23 0 -4 8 -12 -4 -20 -32 -8 -24
-14 -45 -14 -46 0 -2 6 -3 13 -3 7 0 19 15 26 33 l14 32 6 -30 c8 -38 -6 -43
-153 -51 -87 -4 -107 -3 -103 8 2 7 11 12 18 10 8 -2 21 -3 29 -3 8 1 37 1 63
1 27 0 58 5 68 11 26 14 26 65 -1 74 -22 7 -66 -18 -81 -46 -12 -23 -57 -25
-66 -3 -3 8 2 23 11 32 16 16 18 16 32 -2 17 -23 33 -12 18 12 -24 38 -84 14
-84 -34 0 -18 -4 -22 -17 -17 -13 5 -15 2 -11 -14 7 -26 2 -26 -192 -26 -47 1
-101 1 -120 1 -19 0 -44 0 -55 1 -11 1 -92 0 -179 -3 -158 -4 -159 -4 -184 21
-23 23 -25 23 -43 7 -17 -15 -19 -15 -19 -1 0 9 11 29 25 44 24 28 24 28 25 5
0 -14 4 -21 11 -16 6 3 9 18 7 33 -4 27 -3 27 42 20 53 -7 80 -18 80 -30 0 -5
10 -9 23 -9 l22 0 -25 -20 c-39 -30 -58 -26 -56 13 1 26 -3 33 -20 35 -23 3
-78 -52 -71 -72 5 -14 159 -19 204 -7 19 5 35 5 41 -1 13 -13 95 -6 100 9 3
10 -9 11 -45 8 l-48 -6 35 13 c43 16 49 51 10 57 -18 2 -32 -5 -50 -27 -14
-16 -39 -32 -59 -36 l-34 -6 27 21 c21 17 24 24 15 35 -7 8 -22 12 -38 9 -25
-5 -25 -5 -4 6 18 9 27 9 46 -4 20 -13 27 -13 48 -1 13 7 36 13 51 14 19 0 33
9 45 28 44 71 73 83 114 46z"/>
<path d="M5533 6747 c1 -8 -21 -14 -71 -17 -39 -3 -72 -2 -72 3 0 4 -12 7 -27
7 -16 0 -46 2 -68 4 -80 8 -154 -84 -163 -203 -4 -67 13 -155 27 -133 8 13
154 49 234 58 62 7 124 -15 137 -50 9 -26 -22 -110 -53 -145 l-22 -23 25 7
c46 14 95 43 124 74 27 28 28 32 16 61 -15 37 -16 88 -1 103 19 19 12 27 -21
27 -48 0 -94 32 -108 75 -16 48 -6 82 35 121 26 24 31 33 20 38 -8 3 -14 0
-12 -7z"/>
<path d="M4274 6285 c-28 -14 -61 -36 -74 -50 -23 -24 -23 -24 -1 -20 11 2 21
0 21 -6 0 -5 -5 -9 -12 -9 -18 0 -3 -10 21 -15 l22 -4 -21 30 c-12 16 -16 29
-10 29 6 0 15 -11 20 -24 12 -34 26 -35 78 -9 25 13 57 24 71 24 17 1 20 3 9
6 -10 2 -18 11 -18 18 0 7 8 16 18 18 13 4 11 5 -5 6 -13 0 -23 5 -23 10 0 5
10 12 23 14 12 2 2 5 -24 6 -30 1 -61 -7 -95 -24z"/>
<path d="M5404 6184 c-16 -19 -41 -42 -55 -49 -17 -9 -30 -29 -38 -57 -22 -72
-140 -246 -160 -233 -4 2 -8 -2 -8 -10 0 -34 150 -61 208 -37 61 25 129 110
129 160 0 14 22 33 68 61 103 62 172 133 172 177 0 31 -13 30 -86 -2 -34 -15
-86 -29 -122 -32 -54 -4 -65 -2 -77 14 -9 13 -10 23 -3 31 6 7 8 13 6 13 -3 0
-18 -16 -34 -36z"/>
<path d="M4156 6177 c-29 -44 -46 -110 -46 -181 0 -107 60 -670 72 -675 5 -2
24 -16 41 -31 l32 -28 -3 47 c-2 25 -14 159 -28 296 -35 350 -38 395 -26 438
9 32 8 47 -9 89 -10 27 -17 54 -14 59 13 20 -6 8 -19 -14z"/>
<path d="M4392 6159 c-98 -20 -165 -138 -147 -258 3 -25 9 -62 12 -81 7 -47
13 -51 13 -9 l1 34 20 -40 c18 -36 19 -37 14 -10 -3 17 -8 39 -12 50 l-5 20
16 -20 c15 -20 15 -20 16 1 0 15 10 24 39 34 22 7 42 19 45 26 3 8 13 14 23
13 11 0 13 -3 6 -6 -7 -2 -13 -11 -13 -19 0 -8 -9 -14 -20 -14 -11 0 -20 -4
-20 -10 0 -5 -11 -10 -24 -10 -16 0 -26 -7 -30 -22 -15 -58 0 -75 32 -37 9 12
23 27 30 33 63 55 88 83 84 94 -2 6 2 12 8 12 7 0 9 9 5 23 -4 15 -4 18 3 8 5
-7 15 -10 21 -6 8 5 9 11 2 19 -6 7 -8 16 -4 19 3 4 2 7 -4 7 -6 0 -14 7 -17
15 -8 23 42 45 55 24 7 -10 9 -6 7 16 -1 17 1 35 4 41 12 18 -30 9 -52 -11
-16 -14 -21 -16 -18 -5 2 8 10 20 18 26 35 28 -38 57 -108 43z"/>
<path d="M5601 5310 c0 -3 5 -25 12 -50 31 -105 -5 -198 -88 -227 -48 -17
-147 -11 -732 40 l-31 3 -4 -58 c-2 -32 0 -59 4 -61 3 -1 8 -43 10 -94 3 -87
2 -91 -15 -76 -10 10 -15 25 -12 37 3 12 -2 8 -10 -9 l-14 -30 -1 33 c0 22 -5
32 -15 32 -10 0 -15 -11 -16 -32 -1 -18 -3 -25 -6 -15 -2 9 -11 17 -19 17 -8
0 -14 5 -14 10 0 6 7 10 15 10 8 0 15 5 15 11 0 6 -9 8 -20 4 -11 -3 -20 -2
-20 4 0 5 8 12 18 14 9 2 5 3 -10 1 -15 -2 -43 3 -62 11 -45 19 -106 20 -106
2 0 -9 10 -12 30 -9 17 2 30 0 30 -6 0 -5 -16 -12 -35 -14 -31 -4 -35 -1 -35
20 0 16 -5 23 -17 21 -36 -3 -52 1 -55 17 -2 10 -7 5 -15 -15 -6 -17 -7 -31
-2 -31 5 0 9 7 9 16 0 8 5 12 11 9 15 -10 -19 -45 -37 -38 -9 3 -14 -1 -14
-12 0 -9 5 -13 10 -10 6 3 10 1 10 -4 0 -6 -4 -11 -10 -11 -9 0 -8 -43 6 -230
7 -90 49 -270 83 -358 24 -60 25 -66 11 -57 -6 3 -7 -1 -4 -9 3 -9 11 -13 17
-9 6 4 7 1 2 -6 -12 -20 114 -197 202 -285 395 -395 988 -392 1187 4 40 80 43
113 21 186 -19 62 -19 61 6 38 22 -19 22 -19 14 6 -24 78 -120 172 -198 195
-60 18 -61 18 -109 5 -21 -6 -53 -28 -75 -51 -42 -44 -106 -79 -146 -79 -29 0
-48 -20 -20 -21 16 0 16 -1 -2 -9 -53 -23 -225 -3 -225 25 0 7 -18 20 -40 29
-22 9 -40 21 -40 26 0 7 6 7 18 2 9 -5 46 -15 80 -22 53 -11 65 -11 72 0 5 7
22 13 39 13 17 0 31 4 31 9 0 4 -13 8 -29 8 -16 0 -42 5 -56 10 -17 7 -33 7
-45 0 -10 -5 -38 -7 -62 -4 -51 7 -43 -5 -166 234 -77 150 -84 160 -78 115 12
-76 45 -168 82 -227 18 -29 43 -74 55 -100 41 -90 174 -154 302 -146 88 6 141
31 217 103 62 58 105 72 167 56 55 -15 141 -72 163 -109 l20 -32 -28 17 c-15
10 -30 22 -34 27 -4 6 -12 5 -21 -2 -11 -9 -14 -9 -14 3 0 8 5 11 10 8 6 -3 7
-1 3 5 -9 15 -38 3 -29 -12 3 -6 2 -7 -3 -3 -12 11 -12 30 0 39 5 3 -2 5 -17
5 -18 -2 -23 -5 -16 -14 7 -8 4 -12 -8 -15 -10 -2 -23 3 -29 11 -9 12 -15 11
-42 -5 -18 -10 -32 -22 -32 -27 0 -4 -4 -6 -10 -2 -5 3 -6 13 -3 23 6 14 4 15
-9 5 -8 -7 -18 -10 -21 -6 -9 8 -48 -27 -42 -37 3 -4 -1 -7 -8 -7 -6 1 -38
-12 -71 -27 -162 -78 -356 -18 -483 149 -100 131 -137 232 -153 420 -21 243
-28 339 -25 345 2 3 122 -5 267 -17 145 -12 313 -22 374 -22 l110 -1 41 35
c53 45 78 107 70 174 -5 39 -34 129 -36 111z"/>
</g>
</svg>
